<svg width="49" height="49" viewBox="0 0 49 49" fill="none" xmlns="http://www.w3.org/2000/svg">
<g clip-path="url(#clip0_15_61)">
<path fill-rule="evenodd" clip-rule="evenodd" d="M23.4935 3.98727C26.0823 4.0036 28.9467 5.03056 31.6601 7.74394C32.3032 8.38706 32.8545 9.14248 33.0893 10.0367C33.3241 10.9239 33.2001 11.8679 32.7442 12.6644C32.3686 13.3401 31.8214 13.8546 31.36 14.2324C30.2738 15.1225 28.9815 15.7595 27.9851 16.7559C27.4361 17.2936 27.0449 17.9715 26.854 18.7159C28.3587 17.1662 30.2595 15.6738 32.3441 14.7693C34.004 14.0486 35.9068 13.6505 37.8586 14.0466C39.8513 14.4488 41.648 15.6268 43.1343 17.6072C44.0898 18.8833 45.029 20.976 45.0126 23.4934C44.9963 26.0822 43.9714 28.9466 41.256 31.66C40.6128 32.3031 39.8595 32.8544 38.9632 33.0892C38.076 33.324 37.132 33.2 36.3355 32.7441C35.6597 32.3685 35.1452 31.8213 34.7675 31.3599C33.8794 30.2737 33.2404 28.9814 32.244 27.985C31.7064 27.4359 31.0285 27.0447 30.284 26.8539C31.8337 28.3586 33.3261 30.2594 34.2306 32.344C34.9513 34.0039 35.3494 35.9067 34.9554 37.8585C34.5511 39.8512 33.3731 41.6479 31.3927 43.1342C30.1166 44.0897 28.0239 45.0289 25.5065 45.0125C22.9177 44.9962 20.0532 43.9713 17.3399 41.2559C16.6967 40.6127 16.1455 39.8593 15.9107 38.9631C15.6765 38.0756 15.8012 37.1316 16.2578 36.3354C16.6314 35.6596 17.1786 35.1451 17.64 34.7674C18.7262 33.8793 20.0185 33.2403 21.0149 32.2439C21.5646 31.7065 21.9565 31.0286 22.148 30.2839C20.6412 31.8336 18.7384 33.326 16.6559 34.2305C14.996 34.9512 13.0932 35.3493 11.1414 34.9553C9.14871 34.551 7.35204 33.373 5.86571 31.3926C4.91021 30.1165 3.97104 28.0238 3.98738 25.5064C4.00371 22.9176 5.03067 20.0531 7.74404 17.3398C8.38717 16.6966 9.14258 16.1454 10.0368 15.9106C10.9243 15.6764 11.8683 15.8011 12.6645 16.2577C13.3403 16.6313 13.8548 17.1785 14.2325 17.6399C15.1226 18.7261 15.7596 20.0184 16.756 21.0148C17.2745 21.5334 17.9381 21.956 18.716 22.1479C17.1663 20.6411 15.6739 18.7383 14.7694 16.6558C14.0487 14.9959 13.6506 13.0931 14.0467 11.1413C14.4489 9.1486 15.6269 7.35194 17.6073 5.8656C18.8834 4.9101 20.9761 3.97094 23.4935 3.98727ZM20.2186 26.3231C17.6257 26.515 15.3697 25.4044 13.869 23.9017C13.081 23.1136 12.444 22.1785 11.958 21.4639C11.68 21.0387 11.3844 20.6253 11.072 20.2246C10.8739 19.9837 10.8515 20.0062 10.631 20.2267C8.62196 22.2357 8.07888 24.0936 8.07071 25.535C8.05946 26.754 8.43077 27.9457 9.13238 28.9426C10.1165 30.2513 11.0883 30.778 11.9499 30.9516C12.8503 31.1353 13.8854 30.9822 15.0328 30.484C16.9928 29.6347 18.8997 27.934 20.2186 26.3231ZM26.3232 28.7813C26.5151 31.3742 25.4045 33.6302 23.9018 35.1309C23.1137 35.9189 22.1786 36.5559 21.464 37.0418C21.0455 37.3277 20.6188 37.6054 20.2248 37.9279C19.9838 38.126 20.0063 38.1484 20.2268 38.3689C22.2358 40.3779 24.0957 40.921 25.5351 40.9292C26.7541 40.9404 27.9458 40.5691 28.9427 39.8675C30.2514 38.8834 30.7781 37.9116 30.9517 37.05C31.1354 36.1496 30.9823 35.1145 30.4841 33.9671C29.6348 32.0071 27.9341 30.1022 26.3232 28.7813ZM28.7814 22.6767C31.3743 22.4848 33.6303 23.5954 35.131 25.0981C36.2335 26.2006 36.948 27.5787 37.928 28.7731C38.1261 29.0181 38.1485 28.9936 38.369 28.7731C40.378 26.7641 40.9211 24.9062 40.9293 23.4648C40.9395 21.958 40.3637 20.7187 39.8676 20.0572C38.8835 18.7485 37.9117 18.2218 37.0501 18.0482C36.1497 17.8645 35.1146 18.0176 33.9672 18.5158C32.0072 19.3651 30.1023 21.0658 28.7814 22.6767ZM22.6768 20.2185C22.4849 17.6256 23.5955 15.3696 25.0982 13.8689C25.9087 13.0584 26.8745 12.4091 27.5972 11.9171C28.0017 11.6521 28.3947 11.3701 28.7752 11.0719C29.0162 10.8738 28.9937 10.8514 28.7732 10.6309C26.7642 8.62185 24.9063 8.07877 23.4649 8.0706C22.2459 8.05935 21.0542 8.43067 20.0573 9.13227C18.7486 10.1164 18.2219 11.0882 18.0483 11.9498C17.8646 12.8501 18.0177 13.8853 18.5159 15.0327C19.3652 16.9927 21.0659 18.8996 22.6768 20.2185Z" fill="white"/>
</g>
<defs>
<clipPath id="clip0_15_61">
<rect width="49" height="49" fill="white"/>
</clipPath>
</defs>
</svg>
