<svg width="49" height="49" viewBox="0 0 49 49" fill="none" xmlns="http://www.w3.org/2000/svg">
<path d="M8.16666 8.16668V18.375H9.35491M9.35491 18.375C10.7103 15.0229 13.1395 12.2151 16.2619 10.3918C19.3843 8.56851 23.0235 7.83269 26.609 8.29968C30.1945 8.76666 33.5237 10.4101 36.075 12.9723C38.6262 15.5346 40.2552 18.8709 40.7067 22.4583M9.35491 18.375H18.375M40.8333 40.8333V30.625H39.6471M39.6471 30.625C38.2898 33.9752 35.8599 36.7807 32.7378 38.6024C29.6157 40.4241 25.9776 41.159 22.3932 40.6922C18.8088 40.2254 15.4803 38.5832 12.9289 36.0226C10.3775 33.4621 8.74721 30.1278 8.29324 26.5417M39.6471 30.625H30.625" stroke="black" stroke-width="4" stroke-linecap="round" stroke-linejoin="round"/>
</svg>
